<?xml version="1.0" encoding="utf-8"?>
<!-- Generator: Adobe Illustrator 28.7.1, SVG Export Plug-In . SVG Version: 9.03 Build 54978)  -->
<svg version="1.0" id="Layer_1" xmlns:xodm="http://www.corel.com/coreldraw/odm/2003"
	 xmlns="http://www.w3.org/2000/svg" xmlns:xlink="http://www.w3.org/1999/xlink" x="0px" y="0px" width="562.6px" height="115.4px"
	 viewBox="0 0 562.6 115.4" style="enable-background:new 0 0 562.6 115.4;" xml:space="preserve">
<style type="text/css">
	.st0{fill-rule:evenodd;clip-rule:evenodd;fill:#B2AEAD;}
</style>
<path class="st0" d="M79.8,87c0,2.4,5.6,10.8,4.8,12.6c-0.6,1.4-1.5,2.8-1.7,4.5c-13.9,0-27.9,0-41.8,0c-5,0-16.8,0.5-20.7-0.3
	c-5.1-1.1-9.4-5.3-9.4-11.7V23.3c0-3.6,1.5-6.6,3.3-8.4c1.9-1.9,4.5-3.6,8.2-3.6h70c5.7,0,10.5,4.7,11.2,9.6
	c0.3,1.9,0.1,61.2,0.1,62.3c-1.3,0.1-3.2,1-4.3,1.6c-1.2,0.6-1.4,0-4.2-1.2l-8.6-3.6c-1.4,0.9-2.4,2-3.6,3.2
	C82.5,83.8,79.8,86.6,79.8,87L79.8,87z M0,23.1L0,23.1v69.3c0,12.7,10.2,22.8,23,22.8h71.2c0-5.4,2-11.1,5.9-14.6
	c2.4-2.2,2.9-2.8,6.1-4.2c2.2-1,5.6-1.7,8.8-1.7v-70c0-6.8-1.8-12.3-6.2-17.1c-3.3-3.6-9.3-7.2-16.1-7.2H22.3c-3.4,0-6.7,1-9.1,2.1
	C5.6,6.1,0,13.5,0,23.1L0,23.1z M39.6,59.1c0-7.5,4.3-13.7,10.1-16.6c4.8-2.4,11.2-2.4,16,0c9.7,4.9,13.1,17.1,7.1,26.2
	c-0.7,1-1.2,1.5-2,2.4c-2.5,3-7.9,5.5-12.1,5.5c-6.1,0-9.6-1.2-13.9-5.4c-1.3-1.3-2.8-3.2-3.5-5C40.6,64.4,39.6,61.6,39.6,59.1
	L39.6,59.1z M43.3,30L43.3,30c-1.6,0-11.2-4.9-12.7-4.9c-0.4,0-3.2,2.9-3.7,3.4c-4,4-3.8,3.1-0.6,9.8c4,8.4,2.5,5,0.8,11.2
	c-0.8,3-0.1,2.9-2.9,4.2c-0.9,0.5-1.4,0.7-2.2,1.2l-7.2,3.8c0,3.4,0.2,6.1,0.8,9c0.4,1.8,0.6,1.3,2.9,2l7.7,2c4.4,1.1,1.9,0.8,6,6.2
	c1.6,2.2,1.3,0.9-0.1,7.8c-0.4,2.2-0.8,4.5-1.3,6.5l2.5,1.9c1,0.7,1.8,1.2,2.8,1.8c3.6,2.2,2.4,2.6,8.4-2c6.4-4.8,4.9-4.3,9.2-3.6
	c1.5,0.2,2.9,0,4.3,0.1c1.4,0.1,1.8,1.3,2.5,2.1L67,100c1.3,1.2,8.8-2.3,10.1-3c0-4.8,0.2-7.6,0.5-12c0.1-2.3-0.1-1,3.3-4.3
	c2.7-2.7,2-3.2,4.1-3.3c3.7-0.2,8.1-0.7,12-0.7c1.1-1.7,3.2-7.7,3.2-9.5c0-0.4-2.5-2.4-2.9-2.7l-6.4-5.3c-0.8-0.7-0.9-0.7-0.9-2
	l-0.7-5.2c-0.4-2-0.6-1.5,1.2-4c0.5-0.6,0.8-1.1,1.2-1.7l4.8-6.9c0.1-0.6-3-5.3-3.7-6.3c-0.5-0.6-1.2-1.3-1.4-2
	c-2.5,0-6.9,1.2-9.4,1.7c-6.1,1.2-3,1-9.5-2.6c-0.6-0.3-1.4-0.5-1.7-0.9l-2.5-8.5c-0.4-1.4-0.8-3.2-1.3-4.3c-2.9-0.7-6.1-1-9.5-1
	c-0.9,0-2.3,3.6-2.7,4.4c-0.8,1.6-1.6,3.1-2.4,4.7c-2.3,4.2-0.2,2.1-6.4,4.4C45.5,28.9,43.3,30,43.3,30L43.3,30z M133.1,95
	c0-4,4.6-8.3,8.2-9.5c2.5-0.8,4.5-0.8,7.5-1.1c1-0.1,2.7-0.3,3.7-0.5c6.8-1.2,13.1-0.2,19.2,2.8c4.5,2.3,4.4,3.8,5.5,6.5
	c0.9,2,1,2.1,1,4.2c0,2.9-6.4,6.3-9,7.2c-3.7,1.3-5.3,1.2-8.7,1.4c-1.1,0.1-0.9,0.2-2,0.3l-11.4-0.8c-4.8-0.6-4.5,0.8-8.1-1.9
	c-1.5-1.1-2.6-0.9-4.2-3.9C134.3,98.8,133.1,96.1,133.1,95L133.1,95z M135.8,44.4L135.8,44.4c0-3,0.1-4.4,1.7-7.1
	c1.8-3,4.1-5.7,7.8-6.4c2.9-0.5,9.7-0.5,12.4,1.1c1.7,1,4.7,4.8,5.7,6.8c0.2,0.4,0.4,1.2,0.5,1.5c0.3,1.9,0.6,4.7,0.6,6.8
	c0,1.4-2.5,5.9-4,7.3c-3.6,3.3-7.4,3-12.2,3c-1.7,0-3.9-0.6-5.2-1.1c-3.1-1.3-5-3.4-6.2-6.5C136.4,48.4,135.8,46,135.8,44.4
	L135.8,44.4z M125,42.7L125,42.7c0,11.4,4.4,12.9,4.4,15.2c0,5.3-2.5,4.2-4.1,9.6c-1.2,4-0.3,7.2,1.2,10.1c2.1,4.2,2.6,4.4-0.4,8.3
	c-3.5,4.6-4.7,9.2-2.7,14.8c0.5,1.5,1.4,2.4,2.1,3.8c4.9,9.7,16.8,10.8,26.6,10.8c2.3,0,3.9-0.3,5.9-0.5c0.9-0.1,2.2,0,3.2,0
	c2.1,0,7.2-0.5,8.9-1.1c4.3-1.4,8.7-4.6,12.8-6.8c6.7-3.6,6.4-16.5-1.1-22.8c-0.5-0.5-1-0.9-1.5-1.5c-0.7-0.7-1-0.9-1.7-1.5
	c-1.4-1.2-2.9-3-5.5-3.3c-5.9-0.7-2.2-3.1-19.1-2.2c-1.5,0.1-2.8,0.1-4.3,0.3c-1.2,0.2-2.7,0.5-4,0.7c-2.7,0.4-7.3,2.8-9.2-5
	c-0.1-0.6-0.4-1.7-0.3-2.3c0-0.1,0.2-0.9,0.4-1.1c0.6-0.9,3.9-2.1,5-2.1c2.3,0-0.6,0.8,5,1.4c1,0.1,4.6-0.1,6.3-0.1
	c6,0,6.6-0.4,10.3-2.9c3.4-2.3,3.1-3.5,6.8-6.2c1.5-1.1,1.5-0.4,2.7-3.9c2.1-6.6,0.5-9.4-1-15.8c-0.7-3.1-1.2-3.9,0.7-5.5
	c2.8-2.4,4.7,2.8,4.7,5.7c0.9,0.2,2.5,1.2,3.4,1.2c1.5,0,4.5-1.3,5.4-1.9c3-2.1,3.3-8,1-10.8c-1.4-1.8-2.5-1.6-4.4-2.2
	c-1.2-0.4-0.7-0.5-1.8-0.9c-3.5-1.3-3-1.7-6.4-1.7c-2.7,0-4.6,0.4-6.3,1.5c-1.6,1-1.7,2.6-5.3,0.8c-4-2.1-7-3.5-12.4-3.5
	c-7.1,0-13.2,3.1-17.2,6.3C129.6,30.5,125,36,125,42.7L125,42.7z M392.5,70.1c-4.5,0-12-0.4-14.2-4.6c-4-7.9-3.7-10.8-3.7-19.6
	c0-3.2,2.5-8.8,4.8-10.1c6-3.3,9.2-6.4,17.6-2.5c3.8,1.8,6.9,5.4,8.7,9.1c2.4,5,1.9,9.8,1.2,15.3c-0.7,5.3-2.6,8.2-7.3,10.6
	C397.7,69.2,395.4,70.1,392.5,70.1L392.5,70.1z M349.4,4.5L349.4,4.5c0,4.5-0.3,6.1,8.6,6.1c0.9,0,0.4-0.1,1.2-0.1
	c2.3,0.1,3,0.2,3.4,1.7c0.3,1,0.3,1.6,0.5,2.6c1.1,3.8,0.3,7.8,0.3,12.4c0,1.9-0.2,3.1-0.2,4.6c-0.1,1.9,0.2,3.4,0.2,4.9
	c0.2,3.2,0.1,7-0.2,9.8c-0.2,2.1,0,12.5,0,15.9c0,3,0.5,5.2,0.5,8.8c0,2.1-1.1,9.5,4.6,9.5c1.2,0,4-0.8,4.9-1.3
	c0.8-0.4,1-0.9,1.2-1.7c0.3-0.9,0.6-1.6,0.8-2.4c1,0.5,1.8,1.1,3,1.6c1.2,0.5,2.4,0.8,3.8,1.1c1.2,0.3,2.5,0.5,3.9,0.7
	c9.8,2,21.8,0.1,27.7-8.7c0.7-1,1.2-1.9,1.9-3c2-3.3,3-7.3,2.5-11.3c-0.4-3.2,1-9.1-1-14.2c-0.7-1.7-1.6-3.1-2.4-4.7
	c-1.7-3.4-3.1-5.9-5.7-8.5c-2.4-2.4-5.6-3.7-9.1-4.8c-4.4-1.3-14.2-2.9-19.1-0.5c-1.6,0.8-3.2,2.2-5.4,2.2c0-1.8-0.3-2.6-0.3-4.2
	c0-3.4,0.3-15.9-0.4-17.9c-1.8-4.9-21.4-3.3-22.6-2.9C350.2,1.1,349.4,2.4,349.4,4.5L349.4,4.5z M477.9,26c0,0.9,0.9,2.2,1.4,2.8
	c3.1,3.6,9.2-1.2,12.6,3.1c2.1,2.6,1.6,4,4.8,7.2c2,2,4.1,4,5.6,6.3c2.1,3.2,0.9,5.9-1,8.5l-8.3,9.6c-3.2,3.9-5,7.7-10,8.1
	c-1.9,0.1-8.8-1-8.8,3.2c0,6,5.3,5.6,10,5.6c2.6,0,4.4,0.3,6.9,0.2c2.1,0,9.4,0.4,11.1-0.7c2.5-1.6,1.4-6.1-1.9-7.3
	c-1.4-0.5-2.5-0.9-0.6-3.6c1.7-2.4,3.3-3.4,4.6-5.4c1.6-2.5,3.2-6.2,5.7-7.5c1.7,0.9,7,6.7,8.1,9.5c1.7,4.2,8.2,8.4-0.8,8.4
	c-0.7,1-1,0.9-1,2.7c0,5.5,5.5,3.2,9.3,3.2c2.3,0,4.6,0.5,6.8,0.8c5.9,0.9,14.3,2.4,14.3-5.2c0-0.8-0.6-1.7-1-2.1
	c-1.9-1.6-6.8-0.9-9.1-1.2c-5.8-0.9-7.3-4-10.9-9.4c-1.6-2.3-3.8-5.9-5.7-8c-2.1-2.2-5.6-4.1-2.6-8.3c1.4-1.9,2.4-1.4,4.9-5.4
	c0.5-0.8,0.7-1.5,1.2-2.2c1-1.3,2.7-1.9,3.9-2.9c3.5-3.1,1.3-5.1,7.4-6c4.5-0.7,10.4,0.5,10.4-3.8c0-2.8-2.1-4.6-5.4-4.4
	c-2.4,0.1-4.7,0.9-6.8,0c-1.7-0.7-0.5-0.7-3.2-0.7c-2.1,0-3.5,0.7-5.5,0.9c-2.2,0.2-7.7-1.9-8.8,0.6c-2.7,6,1.8,4.7,1.8,6.4
	c0,4.3-2.6,7.9-5.3,10.6c-1,1-1.5,1.7-2.8,2.4c-1.7-0.9-2-2.6-3.6-4.9c-1.2-1.7-3-3.7-3-6.1c0-2.6,3.9-1.6,3.9-5.6
	c0-2.2-3.9-4.2-6.4-4.2c-3.2,0-9.6,0.7-10.7,0.6C486.7,21.2,477.9,22.6,477.9,26L477.9,26z M253.3,64.7c0-2,0.4-4,1.8-5.3
	c5.5-5.1,27-6.7,25.6,0.9c-0.7,4.1-9.5,9.8-15.5,10.3c-1.5,0.1-1.5,0-3.2,0C258.3,70.5,253.3,68.4,253.3,64.7z M251.3,45.1
	L251.3,45.1h1.5c2.2,0,6.1-2.6,6.1-4.6c0-3.3-1.2-4.3-1.2-5.6c0-6.2,14.1-5.3,18.6-3.7c3.6,1.3,4.8,5.8,4.5,9.5
	c-0.3,3.4-4.1,6.4-7.7,6.4c-2.5,0-3-1.1-9.7-0.1c-1.6,0.2-3.5,0.3-4.8,0.6c-3.2,0.6-5.7,1.5-8.1,3c-5.3,3.3-12.7,16.9-1.1,25.4
	c2.7,2,9.3,4.8,13.8,4.8c3.3,0,7.6-1.1,9.8-2.2c3.9-1.9,3.8-3.7,8.3-3.7c3.3,0,4.8,2,5.7,2.6l6,2.3c2.5,0,6-2.8,5.8-5.8
	c0-0.5-0.5-3.1-0.7-3.5c-1.4-2.6-8.9,2.2-8.9-7.1c0-10.4,3.6-29.6-4-37.1l-3.2-2.4c-6.7-4.1-23.5-4.5-30.9,1.2
	c-3.3,2.6-5.8,10.7-5.6,13C246.1,40.7,248.1,45.1,251.3,45.1L251.3,45.1z M431.9,51.2c0-5.6,1.7-10.2,5.2-14.4
	c0.8-1,1.6-1.5,2.6-2.3c7-6.2,18.3-5.3,23.6,2.7c4.1,6.3,3.4,8.9,4.3,14.6c0.2,1.6-0.2,6.4-0.8,8.2c-4.2,12.3-27.9,17.2-33.6-1
	C432.6,57.4,431.9,53.5,431.9,51.2L431.9,51.2z M420.9,48.1L420.9,48.1c0,7.5,0.8,19.1,6.3,24.5c2.7,2.7,4.4,4.1,8.1,5.6
	c11.6,4.7,25,2.6,34.9-4.8c3.4-2.5,5.2-5.7,7.2-9.5c2.2-4.5,1.4-4,1.8-9.2c0.3-3.5,1-6.4,0.3-9.9c-0.6-3.2-1.3-6-3-8
	c-0.8-1-0.3-0.7-0.9-1.8l-5.7-7.8c-1.2-1.2-3.7-2.9-5.2-3.6l-6.1-2.3c-10.6-2.7-25.8,1.8-32.1,10.1
	C423.6,35.3,420.9,41.2,420.9,48.1L420.9,48.1z M216.8,30c2.8,0,6.8,1.6,8.9,3.6c1.8,1.7,5.1,5.2,5.1,7.9c0,1.5-4.4,2.2-6.1,2.2
	c-2.5,0.1-5.5,0.4-7.8,0.1c-1.5-0.2-5.8-0.2-7.9-0.1c-4.1,0.2-12.6,1.5-9-5.4c2.1-4.1,5-5.9,9.5-7.1C210.9,30.7,215,30,216.8,30
	L216.8,30z M186.7,54.2L186.7,54.2c0,4.8,0.4,8.5,2.9,12.5c7.4,11.7,24.1,17.3,35.7,11.9c3.7-1.7,6.7-3.8,9.7-6.5
	c3.5-3.1,5.3-6.5,5.3-11.8c0-7.5-10.3-4.9-10.3,0.7c0,1.2,0.8,2-1,4.1c-2.3,2.7-3.9,3.5-7.3,4.4c-5.4,1.5-8.1,1.4-13.7-0.1
	c-2.1-0.6-4-1.3-5.5-2.6c-3.3-2.8-5.7-5.4-5.7-10.9c0-5.9,2.2-3.9,13-3.9c3.2,0,5.5,0.2,8.6,0.2h9.8c1.9,0,2.8-0.5,4.4-0.5
	c2.3,0,4.7,0.8,6.3-0.3c2.9-2,1.9-7.7,1.4-10.5c-1.4-7.2-1.2-6.6-6.8-12.2c-4.1-4.2-11.7-7.3-17.9-7.3c-5.3,0-10.5,0.2-14.5,3.4
	c-2.4,1.9-3.4,4.1-5.3,5.4c-0.8,0.6-1.5,0.7-2.1,1.5C189,36.9,186.7,44.8,186.7,54.2L186.7,54.2z M320.3,28h-1
	c0-1.2,2.8-5.1-2.9-6.1c-2.5-0.4-3.9,0-6.6,0c-6.1,0-13.2-1.8-13.2,4.2c0,9.7,12.7-1.8,14.6,8.9c0.4,2.3,0.2,11.1-0.1,13.9
	c-0.5,4.3,1.7,16.5-0.5,21c-7,0-8.6,0.9-8.6,6.6c0,4.5,10.9,3.4,14.7,3.4c4.9,0,6.4,1.2,11.8-0.2c1.8-0.4,2.8-1,3.3-2.8
	c0.4-1.8,0.3-3.3-0.5-4.7c-2.3-4.2-7.1,2.1-9.2-6.4c-1.6-6.5-0.9-15.1,0-21.5c1-7.3,8.1-11.8,14.8-13.6c9.1-2.3,12.4,3.1,8.7,5
	c-1.6,0.8-4.2,1.7-4.2,5.9c0,5.1,2.9,7.8,8.3,7.8c6,0,10-6.5,10-10.3c0-3.7-0.2-4.8-2.3-8.2c-1.2-1.9-2.5-3.2-4.1-4.7
	c-1.3-1.3-3.5-2.8-5.4-3.5c-6.1-2.3-13.5-2-19.1,0.9l-4,2.3C323.7,26.7,322.1,28,320.3,28L320.3,28z M436.8,96.3l-0.2-3.2h-3.4
	c0,5.9,0.4,12.1,0.2,18.4l0,2.9h3.7v-12c0-3.3,2-6.4,4.4-6.4c4.9,0,4.9,3.5,4.9,7.6l0,8.6c0,2.6-0.5,2.2,3.9,2.2v-13.5
	c0-2.2,2.1-4.9,4.2-4.9c5,0,4.9,3.6,4.9,7.8l0,9.8c0.2,1,0.2,0.7,3.9,0.7v-13.9c0-1.8-0.8-3.7-1.5-4.9c-2-3.1-6-3.6-9-2
	c-2.7,1.4-2.2,2.3-3.4,3.2c-0.6-2.4-3.5-4.1-5.9-4.1C439.9,92.7,438.5,94.3,436.8,96.3L436.8,96.3z M485,95.5c3.4,0,5.1,2.6,5.1,6.1
	h-10.8C479.4,98.4,481.8,95.5,485,95.5L485,95.5z M475.5,103.1L475.5,103.1c0,3.1,0,4.8,1.8,7.5c0.9,1.4,2.4,2.6,4,3.3
	c3.1,1.3,8.7,0.9,11.6-0.6c-0.2-0.8-0.5-1.8-0.5-2.7c-1.2,0-1.5,0.4-2.6,0.6c-5.1,1.2-10.5-0.5-10.7-6.7h14.2c0.9,0,0.7-0.6,0.7-2
	c0-6.2-4.2-10.6-9.4-9.9C479.1,93.4,475.5,97.3,475.5,103.1L475.5,103.1z M207.3,95.5c3.5,0,5.4,2.6,5.4,6.1h-11
	C201.9,98.6,204.1,95.5,207.3,95.5L207.3,95.5z M197.7,103.9L197.7,103.9c0,9,6.8,12,14.3,10.6c1.3-0.2,2-0.7,3.1-0.8
	c0-1.4-0.2-1.8-0.5-2.9c-1,0.1-1.5,0.4-2.5,0.6c-5,1-10.4-0.2-10.4-6.8h13.9c1.3,0,0.8-2.7,0.7-3.7C215,88.6,197.7,90.5,197.7,103.9
	L197.7,103.9z M361.9,111.7h-1.2c-3.2,0-6.5-8.1,5.9-8.1c0,3,0.5,4.9-1.5,6.8C364.3,111.1,363.3,111.7,361.9,111.7L361.9,111.7z
	 M355.6,94.3L355.6,94.3c0,1.2,0.4,2.2,0.7,2.9c2.8-1.5,3.3-1.5,6.4-1.5c2.9,0,3.9,2.2,3.9,5.1h-2.2c-13,0-12.9,12.6-5.4,13.7
	c2.3,0.3,4.7-0.1,6.4-1.4c0.8-0.6,0.7-1,1.7-1.3c0,2.8-0.7,2.4,3.7,2.4c0-1.8-0.3-2.5-0.2-4.4c0-9.4,1.4-15.9-7-17.2
	c-1.2-0.2-3.1,0-4.3,0.3C357.3,93.5,356.5,94.1,355.6,94.3L355.6,94.3z M289.5,95.5c1.7,0,2.8,0.5,3.7,1.4c1.5,1.4,1.6,2.7,1.6,4.7
	h-10.8c0-2.2,1.5-4.7,3.1-5.5C287.6,96,289,95.5,289.5,95.5L289.5,95.5z M280.2,103.1L280.2,103.1c0,3.1,0,4.8,1.8,7.5
	c2,3.1,6.3,4.4,9.6,4.1c2.7-0.3,4.1-0.3,6-1.3c-0.2-0.8-0.5-1.8-0.5-2.7c-1.2,0-11.7,4.2-13.1-5.1c-0.1-0.6-0.2-0.1-0.1-0.8
	c0.2-1,0-0.3,0.3-0.3l11.3,0.1c3.4,0,3.2,0.5,3.2-2.4c0-2.9-1.1-5.4-2.6-6.9l-0.6-0.6c-0.3-0.3-0.4-0.3-0.7-0.5
	C289.7,90.4,280.2,94,280.2,103.1L280.2,103.1z M509.7,96.3c0-1.5-0.2-1.8-0.2-3.2h-3.4v20.6c0,1.1,1,0.7,3.4,0.7
	c1.2,0,0.7-2.8,0.7-5.1c0-3.8-0.5-9,1.1-11.2c2.1-2.9,9-3.7,9,4.1v12.2h3.9v-13.2c0-4-2-7.2-5.1-8.1c-1.7-0.5-3.7-0.5-5.5,0.2
	C510.9,94.3,510.7,95.6,509.7,96.3L509.7,96.3z M405,96.3c0-3.5,0.6-3.2-2.9-3.2c-1.2,0-0.5,0.9-0.5,2v19.3h3.9v-12.5
	c0-6,7-7.8,9.3-3.7c0.9,1.5,0.7,2.8,0.7,5.1l0,8.8c0,2.5-0.4,2.2,3.4,2.2c0.6,0,0.7-0.2,0.7-0.7c0-4.5,0.6-13.5-1.1-17
	c-2.5-5-9-5.2-12.5-1.3c-0.1,0.2-0.3,0.4-0.5,0.5C405.2,96.2,405.5,96.1,405,96.3L405,96.3z M232,96.3c0-3.5,0.6-3.2-2.9-3.2
	c-1.1,0-0.6,0.8-0.5,1.7l0,17.4c0,2.6-0.5,2.2,3.9,2.2v-12.5c0-6,7-7.8,9.3-3.7c1.2,2.1,0.8,10.8,0.7,14c0,2.5-0.4,2.2,3.4,2.2
	c0.6,0,0.7-0.2,0.7-0.7v-10.8c0-4.7-1.2-8.2-4.6-9.6c-1.7-0.7-3.9-0.9-5.8-0.1c-1.6,0.6-2.1,1-3.2,2.2L232,96.3L232,96.3z
	 M538.4,88.7v4.4h-3.2v3.2h3.2v10.3c0,3,0.3,5.6,2,7c1.7,1.4,5.1,1.6,7.3,0.5c-0.1-1.1-0.2-1.5-0.2-2.9c-3.5,0.8-5.1,0.1-5.1-4.2
	V96.3c6.5,0,5.6,0.7,5.6-2.4c0-1.2-2.2-0.7-5.6-0.7v-5.9C541.4,87.3,538.4,87.8,538.4,88.7L538.4,88.7z M334.5,88.7v4.4h-3.2v3.2
	h3.2c0,3.5-0.5,13,0.6,15.5c0.4,1,1,1.6,1.8,2.1c1.8,1.4,4.4,0.6,6.7,0.4c0-4.2,0.5-2.9-2.7-2.9c-1.6,0-2.4-1.6-2.4-3.2v-12h5.4
	v-3.2h-5.4v-5.9C338.1,87.2,334.5,87.7,334.5,88.7z M260.9,88.7v4.4h-3.2v3.2h3.2c0,3.9-0.5,12.9,0.7,15.7c0.3,0.8,1.1,1.6,1.8,2.1
	c1.9,1.2,4.3,0.5,6.5,0.3c0-4.1,0.6-2.8-2.5-2.9c-1.8-0.1-2.7-1.4-2.7-3.2v-12h5.4v-3.2h-5.4v-5.9C264.5,87.2,260.9,87.7,260.9,88.7
	L260.9,88.7z M314.5,97c0-1.6-0.2-2.2-0.2-3.9h-3.4c0,2.5,0.2,4.1,0.2,6.6v14.7c4.9,0,3.9,0.9,3.9-5.1c0-4-1.1-12.7,4.9-12.7h1.7
	v-3.7c-1.4-0.1-2.6-0.4-4.5,0.9C315.5,94.8,315.2,95.9,314.5,97L314.5,97z M383.9,93.8v19.8c0,1.1,1.3,0.7,3.9,0.7V93.1
	C385.2,93.1,383.9,92.7,383.9,93.8z M550.4,20.9c0-3.5,2.1-5.8,5.2-6.1c2.8-0.2,5.6,2.3,5.6,5.8C561.1,28.4,550.4,27.8,550.4,20.9
	L550.4,20.9z M548.9,20.2L548.9,20.2c0,10.1,13.7,9.2,13.7,0.5c0-6.1-7-9.3-11.5-5.2C550.1,16.3,548.9,18.5,548.9,20.2L548.9,20.2z
	 M556,20.2h-1.5v-2.4h1c1.2,0,1.5,0.5,1.7,1.5C556.9,19.6,556.7,20.2,556,20.2L556,20.2z M553.3,17.5L553.3,17.5
	c0,0.1-0.1,0.5-0.1,0.5l0.1,6.6h1.2v-3.2c1.8,0,2.1-0.2,2.4,1.7c0.2,1.3,0.2,1.5,1.7,1.5c-0.1-1.7-0.4-3-1.5-3.9
	c2-0.5,1.7-3.9-1-3.9h-2.9V17.5z M383.5,87.5c0,2.7,4.9,3.7,4.9-0.2C388.4,83.9,383.5,84.4,383.5,87.5z"/>
</svg>
