<?xml version="1.0" encoding="UTF-8"?>
<svg xmlns="http://www.w3.org/2000/svg" version="1.1" viewBox="0 0 518 72">
  <!-- Generator: Adobe Illustrator 28.7.1, SVG Export Plug-In . SVG Version: 1.2.0 Build 142)  -->
  <g>
    <g id="Layer_1">
      <path d="M18.9,71.9c-5.9,0-10.6-1.4-13.9-4.3-3.4-2.9-5-6.7-5-11.4s1.7-8.8,5.1-11.5c3.4-2.7,8.3-4.1,14.8-4.1h15.5v-2c0-6.2-3.6-9.3-10.8-9.3s-9.8,2.2-11.1,6.6H.8c1.1-5.4,3.6-9.5,7.7-12.4,4.1-2.8,9.4-4.3,16-4.3s13.1,1.7,17,5c3.9,3.4,5.8,8.2,5.8,14.7v19.4h6v12.6h-12.9v-8.1h-3.6c-1.7,2.9-4.1,5.1-7.1,6.7s-6.6,2.4-10.9,2.4ZM20.8,62.2c2.8,0,5.2-.5,7.4-1.6,2.2-1,3.9-2.4,5.2-4.2,1.3-1.8,1.9-3.8,1.9-6v-1.2h-14.8c-5.7,0-8.5,2.1-8.5,6.3s.8,3.7,2.3,4.9c1.5,1.2,3.7,1.7,6.5,1.7ZM63.1,71V0h12.6v71h-12.6ZM111.8,72c-5.4,0-10.1-1.1-14.2-3.3-4-2.2-7.1-5.2-9.3-9.2-2.2-4-3.3-8.7-3.3-14.1s1.1-10.1,3.2-14c2.1-3.9,5.2-6.9,9.1-9,3.9-2.1,8.6-3.2,13.9-3.2s9.6,1,13.4,3c3.7,2,6.6,4.9,8.6,8.6,2,3.7,3,8.2,3,13.3v4.4h-39.2c.5,4.3,2,7.6,4.5,9.8,2.5,2.3,5.8,3.4,10,3.4s5.6-.6,7.6-1.7,3.3-2.9,4.1-5.2h12.7c-1.2,5.4-3.9,9.5-8.2,12.5-4.3,3-9.6,4.5-16.1,4.5ZM97.5,40.1h26.7c-.5-3.5-1.8-6.2-4-8-2.2-1.8-5.2-2.7-8.9-2.7s-6.7.9-9,2.8-3.9,4.5-4.7,7.9ZM138.4,71l19.9-25.9-18.9-24.8h14l12.2,16,12.3-16h13.9l-18.9,24.8,19.9,25.9h-14.1l-13.1-17.3-13.2,17.3h-14ZM210.5,71l-16.3-50.7h12.9l10.7,35.1h.4l12.5-35.1h12.1l12.5,35.1h.4l10.7-35.1h12.8l-16.2,50.7h-13.5l-12.5-34.4h-.3l-12.5,34.4h-13.5ZM301,71.9c-5.9,0-10.6-1.4-13.9-4.3-3.4-2.9-5-6.7-5-11.4s1.7-8.8,5.1-11.5c3.4-2.7,8.3-4.1,14.8-4.1h15.5v-2c0-6.2-3.6-9.3-10.8-9.3s-9.8,2.2-11.1,6.6h-12.6c1.1-5.4,3.6-9.5,7.7-12.4,4.1-2.8,9.4-4.3,16-4.3s13.1,1.7,17,5c3.9,3.4,5.8,8.2,5.8,14.7v19.4h6v12.6h-12.9v-8.1h-3.6c-1.7,2.9-4.1,5.1-7.1,6.7s-6.6,2.4-10.9,2.4ZM302.9,62.2c2.8,0,5.2-.5,7.4-1.6,2.2-1,3.9-2.4,5.2-4.2,1.3-1.8,1.9-3.8,1.9-6v-1.2h-14.8c-5.7,0-8.5,2.1-8.5,6.3s.8,3.7,2.3,4.9c1.6,1.2,3.7,1.7,6.5,1.7ZM345.1,71V0h12.6v71h-12.6ZM369.9,71V0h12.6v39.9h.3l21.4-19.6h15.1l-22.1,19.9,23.9,30.8h-14.9l-17.8-23.1-5.9,4.8v18.3h-12.6ZM449.4,72c-5.4,0-10.1-1.1-14.2-3.3-4-2.2-7.1-5.2-9.3-9.2s-3.3-8.7-3.3-14.1,1.1-10.1,3.2-14c2.1-3.9,5.2-6.9,9.1-9,3.9-2.1,8.6-3.2,13.9-3.2s9.6,1,13.4,3c3.7,2,6.6,4.9,8.6,8.6,2,3.7,3,8.2,3,13.3v4.4h-39.2c.5,4.3,2,7.6,4.5,9.8,2.5,2.3,5.8,3.4,10,3.4s5.6-.6,7.6-1.7,3.3-2.9,4.1-5.2h12.7c-1.2,5.4-3.9,9.5-8.2,12.5-4.3,3-9.6,4.5-16.1,4.5ZM435.1,40.1h26.7c-.5-3.5-1.8-6.2-4-8-2.2-1.8-5.2-2.7-8.9-2.7s-6.7.9-9,2.8c-2.4,1.9-3.9,4.5-4.7,7.9ZM487,71v-38.1h-6.3v-12.6h12.9v9.8h3.6c1.4-3.4,3.6-5.9,6.5-7.7,2.9-1.7,6.3-2.6,10.1-2.6h4.2v10.8h-4.8c-4.6,0-8.1,1.3-10.3,4-2.3,2.6-3.4,6.2-3.4,10.6v25.9h-12.4Z"/>
    </g>
  </g>
</svg>