<svg xmlns="http://www.w3.org/2000/svg" version="1.1" viewBox="0 0 400 90">
  <path d="M4.9,74v-30.1H0v-9.9h10.1v7.7h2.8c1.1-2.7,2.8-4.7,5.1-6.1,2.3-1.4,5-2.1,7.9-2.1h3.3v8.5h-3.8c-3.6,0-6.4,1-8.1,3.1-1.8,2.1-2.7,4.9-2.7,8.3v20.4H4.9ZM46.5,74.7c-4.7,0-8.3-1.1-11-3.4-2.6-2.3-4-5.3-4-9s1.3-6.9,4-9.1c2.7-2.1,6.6-3.2,11.6-3.2h12.2v-1.6c0-4.9-2.8-7.3-8.5-7.3s-7.8,1.7-8.7,5.2h-9.9c.8-4.3,2.9-7.5,6.1-9.8,3.2-2.2,7.4-3.4,12.6-3.4s10.3,1.3,13.4,4c3.1,2.6,4.6,6.5,4.6,11.6v15.3h4.7v9.9h-10.2v-6.4h-2.8c-1.4,2.3-3.2,4-5.6,5.3-2.3,1.2-5.2,1.9-8.6,1.9ZM48,67.1c2.2,0,4.1-.4,5.9-1.2s3.1-1.9,4.1-3.3,1.5-3,1.5-4.7v-.9h-11.7c-4.5,0-6.7,1.7-6.7,5s.6,2.9,1.8,3.8c1.2.9,2.9,1.4,5.1,1.4h0ZM78.9,90v-7.9h9.1l3.4-8.3-17.4-39.8h10.5l12,28.3h.3l11.6-28.3h10.1l-17.1,40-3.5,8.3c-1.1,2.4-2.2,4.3-3.5,5.7s-3.3,2-6,2c0,0-9.3,0-9.3,0ZM140.7,74.8c-4.3,0-8.1-.9-11.2-2.6-3.2-1.7-5.6-4.1-7.4-7.2-1.8-3.1-2.6-6.8-2.6-11s.9-8,2.6-11.1,4.2-5.5,7.4-7.2,6.9-2.5,11.2-2.5,8.1.8,11.2,2.5c3.1,1.7,5.6,4.1,7.3,7.2,1.7,3.1,2.6,6.8,2.6,11.1s-.9,7.9-2.6,11c-1.7,3.1-4.2,5.5-7.3,7.2-3.1,1.7-6.9,2.5-11.2,2.5h0ZM140.7,66.1c3.6,0,6.3-1.1,8.3-3.2,1.9-2.2,2.9-5.1,2.9-8.9s-1-6.8-2.9-8.9-4.7-3.2-8.3-3.2-6.4,1.1-8.4,3.2c-2,2.1-3,5.1-3,8.9s1,6.8,3,9c2,2.2,4.8,3.2,8.4,3.2h0ZM185.5,74.8c-5.8,0-10.3-1.2-13.7-3.6s-5.1-5.8-5.4-10.2h9.7c.3,2.1,1.3,3.6,2.9,4.6,1.6,1,3.9,1.5,6.9,1.5,5.1,0,7.7-1.5,7.7-4.4s-.4-2.2-1.2-2.9-2.1-1.2-3.9-1.5l-8.9-1.7c-7.8-1.5-11.7-5.2-11.7-11.1s1.5-6.8,4.5-9c3-2.2,7.1-3.4,12.3-3.4s9.5,1.1,12.6,3.4,4.8,5.5,5.2,9.7h-9.6c-.5-2-1.4-3.5-2.8-4.4-1.4-.9-3.3-1.4-5.8-1.4s-4,.4-5.2,1.1-1.8,1.8-1.8,3.1.4,1.8,1.1,2.5c.8.6,1.9,1.1,3.6,1.4l9,1.7c4.1.8,7.1,2.1,9,4s2.9,4.4,2.9,7.5-1.5,7.2-4.5,9.5c-3,2.3-7.3,3.4-12.9,3.4h0ZM220.9,74c-2.6,0-4.6-.7-6.1-2-1.4-1.3-2.2-3.4-2.2-6.1v-24.2h-7.1v-7.7h7.1v-12h9.7v12h9.7v7.7h-9.5v24.5h10.5v7.8h-12.1,0ZM255.7,74.7c-5.5,0-9.7-1.5-12.6-4.4-2.9-2.9-4.4-6.8-4.4-11.8v-24.5h9.9v22.5c0,3.1.8,5.5,2.4,7,1.6,1.6,4,2.4,7.1,2.4s5.9-.8,7.7-2.5c1.8-1.7,2.7-4.1,2.7-7.1v-22.3h9.9v30.1h5v9.9h-10.2v-6.4h-2.8c-1.6,2.3-3.5,4.1-5.8,5.3s-5.3,1.8-8.8,1.8h0ZM306.8,74.8c-4.1,0-7.5-.9-10.4-2.6-2.8-1.7-5-4.1-6.5-7.3-1.5-3.1-2.2-6.8-2.2-11s.7-7.9,2.2-11c1.4-3.1,3.5-5.5,6.3-7.2s6-2.6,9.8-2.6,5.6.6,7.8,1.7c2.2,1.1,3.8,2.8,5,4.9h.3v-21.8h9.9v46.1h4.9v9.9h-10.1v-6.4h-2.8c-1.4,2.3-3.3,4.1-5.7,5.3-2.4,1.2-5.2,1.9-8.5,1.9h0ZM308.5,66.2c3.2,0,5.7-.9,7.6-2.7s2.8-4.2,2.8-7.3v-4.4c0-3.1-.9-5.5-2.8-7.3-1.9-1.8-4.4-2.7-7.6-2.7s-6.3,1.1-8.1,3.2c-1.9,2.2-2.8,5.1-2.8,9s.9,6.8,2.8,9c1.9,2.2,4.6,3.2,8.1,3.2ZM345.6,29.6c-1.6,0-2.9-.5-4-1.6-1.1-1.1-1.6-2.4-1.6-4s.5-2.9,1.6-4,2.4-1.6,4-1.6,2.9.5,4,1.6c1.1,1.1,1.6,2.4,1.6,4s-.5,2.9-1.6,4-2.4,1.6-4,1.6ZM340.7,74v-40h9.9v40h-9.9ZM378.9,74.8c-4.3,0-8-.9-11.2-2.6-3.2-1.7-5.6-4.1-7.4-7.2-1.8-3.1-2.6-6.8-2.6-11s.9-8,2.6-11.1,4.2-5.5,7.4-7.2c3.2-1.7,6.9-2.5,11.2-2.5s8.1.8,11.2,2.5c3.1,1.7,5.6,4.1,7.3,7.2,1.7,3.1,2.6,6.8,2.6,11.1s-.9,7.9-2.6,11-4.2,5.5-7.3,7.2-6.9,2.5-11.2,2.5h0ZM378.9,66.1c3.5,0,6.3-1.1,8.3-3.2,2-2.2,2.9-5.1,2.9-8.9s-1-6.8-2.9-8.9c-2-2.1-4.7-3.2-8.3-3.2s-6.4,1.1-8.4,3.2c-2,2.1-3,5.1-3,8.9s1,6.8,3,9c2,2.2,4.8,3.2,8.4,3.2h0Z"/>
</svg>