<svg width="64" height="56" viewBox="0 0 64 56" fill="none" xmlns="http://www.w3.org/2000/svg">
<path d="M15.8351 55.9265L47.63 56L64 28.2792L47.8938 0.0734715L15.9597 0L0 27.9486L15.8351 55.9265Z" fill="black"/>
<path d="M18 23.5C18 22.6716 18.6716 22 19.5 22H44.5C45.3284 22 46 22.6716 46 23.5C46 24.3284 45.3284 25 44.5 25H19.5C18.6716 25 18 24.3284 18 23.5Z" fill="white"/>
<path d="M18 33.5C18 32.6716 18.6716 32 19.5 32H44.5C45.3284 32 46 32.6716 46 33.5C46 34.3284 45.3284 35 44.5 35H19.5C18.6716 35 18 34.3284 18 33.5Z" fill="white"/>
</svg>
