<svg width="65" height="57" viewBox="0 0 65 57" fill="none" xmlns="http://www.w3.org/2000/svg">
<path d="M16.0826 56.9252L48.3742 57L65 28.7842L48.6421 0.0747835L16.2091 0L0 28.4477L16.0826 56.9252Z" fill="#231F20"/>
<path d="M39.6294 29.1133C43.5217 29.0609 46.2306 26.3612 46.2306 22.5174C46.2306 18.6735 43.4696 15.9065 39.5178 15.9065H31.6812L13.165 37.317H16.6554L21.3217 31.9176C21.8798 31.3568 22.0733 31.2895 23.0631 31.2895H31.1007V37.317H33.7501V29.1133H34.4125C35.566 29.1133 36.0125 29.3526 36.8386 30.1303L44.4668 37.317H48.3517L39.6369 29.1133H39.6294ZM31.1081 20.6179V28.6122H24.1869L31.1081 20.6179ZM39.5178 26.451H33.7501V18.5613H39.5178C41.9886 18.5613 43.5887 20.1093 43.5887 22.5099C43.5887 24.9104 41.9886 26.4435 39.5178 26.4435V26.451Z" fill="white"/>
</svg>
