<?xml version="1.0" encoding="UTF-8"?>
<svg id="Layer_1" xmlns="http://www.w3.org/2000/svg" version="1.1" viewBox="0 0 18 15">
  <!-- Generator: Adobe Illustrator 29.6.1, SVG Export Plug-In . SVG Version: 2.1.1 Build 9)  -->
  <defs>
    <style>
      .st0 {
        fill: #231f20;
      }
    </style>
  </defs>
  <path class="st0" d="M13.47.02l-8.98-.02L0,7.49l4.45,7.49,8.94.02,4.6-7.43L13.47.02ZM14.72,5.68l-3.15-3.02,3.15,1.78v1.24h0ZM5.75,7.07l.1-1.54.77-.37-.87,1.91h0ZM7.11,5.05l3.17-.36,1.83,2.46-1.27,2.78-3.13.34-1.87-2.43,1.28-2.79h0ZM5.67,8.27l1.23,1.6-1.28-.8.05-.8ZM10.11,10.39l-1.36.64-.66-.42,2.03-.22ZM12.21,7.88l-.1,1.57-.79.37.89-1.94ZM12.29,6.73l-1.19-1.61,1.25.81-.05.8ZM7.85,4.58l1.39-.66.66.42-2.04.23ZM6.37,4.85l1.46-1.42,1,.26-2.46,1.16ZM5.26,8.34l-.55-1.89.72-.69-.17,2.58ZM5.61,9.52l2.32,1.45-2.04-.49-.28-.96ZM11.6,10.12l-1.44,1.39-1-.24,2.45-1.15h0ZM12.7,6.61l.56,1.92-.73.7.17-2.63h0ZM12.37,5.48l-2.29-1.48,2.01.51.28.96h0ZM5.44,5.21l1.16-1.86.74.02-1.9,1.85ZM4.41,6.85l.71,2.46-1.09-1.86.38-.6ZM8.74,11.57l-2.3-.02-.37-.63,2.66.64ZM12.54,9.76l-1.15,1.83h-.74s1.89-1.83,1.89-1.83ZM13.56,8.15l-.73-2.51,1.11,1.9-.38.61h0ZM9.29,3.41l2.26.05.37.62-2.63-.67h0ZM7.39,2.98l3.15-.77.89.86-4.04-.09ZM4.11,6.58l.86-3,1.21-.3-2.06,3.3ZM3.77,7.78l1.95,3.32-2.27-2.18.33-1.14ZM10.66,11.96l-3.18.82-.89-.86,4.07.03ZM13.88,8.39l-.86,2.96-1.21.31,2.07-3.28h0ZM14.22,7.22l-1.97-3.37,2.31,2.21-.33,1.16ZM5.94,2.94l3.11-1.7,1.16.66-4.27,1.05h0ZM3.28,8.04v-3.65s1.23-.67,1.23-.67l-1.23,4.32ZM3.28,9.3l3.24,3.11-3.25-1.78v-1.34ZM12.43,11.9l-3.44,1.87-1.2-.66,4.65-1.21h0ZM14.72,6.93v3.74s-1.28.69-1.28.69l1.28-4.42h0ZM10.23,1.46l4.09,1.06.4,1.47-4.48-2.54h0ZM4,3.56L7.07.64l1.54.4L4,3.56ZM2.88,9.28l-1.04-3.66,1.05-1v4.67ZM7.72,13.51l-3.94-1.04-.38-1.32,4.31,2.36ZM13.93,11.53l-2.99,2.84-1.51-.4,4.5-2.44ZM15.12,5.51l1.04,3.89-1.06,1v-4.9ZM14.92,3.21l2.62,4.36-1.01,1.63-1.61-5.99ZM14.26,2.1L7.66.39h5.58s1.02,1.71,1.02,1.71ZM4.72.38h2.04S2.01,4.91,2.01,4.91L4.72.38ZM1.47,5.8l1.4,4.93v.13l.04.02.4,1.41L.46,7.49l1.01-1.68h0ZM3.64,12.83l6.73,1.78h-5.69s-1.05-1.78-1.05-1.78ZM13.17,14.62h-1.91s4.66-4.44,4.66-4.44l-2.75,4.44Z"/>
</svg>