<svg width="82" height="82" viewBox="0 0 82 82" fill="none" xmlns="http://www.w3.org/2000/svg">
<rect x="1" y="1" width="80" height="80" rx="40" fill="#FAF7F6"/>
<rect x="1" y="1" width="80" height="80" rx="40" stroke="#FAF7F6" stroke-width="2"/>
<g clip-path="url(#clip0_192_15)">
<path d="M49.4375 33.5V45.6875C49.4375 45.9403 49.3444 46.1597 49.1583 46.3458C48.9722 46.5319 48.7528 46.625 48.5 46.625C48.2472 46.625 48.0278 46.5319 47.8417 46.3458C47.6556 46.1597 47.5625 45.9403 47.5625 45.6875V35.7542L34.175 49.175C34.0778 49.2528 33.975 49.3153 33.8667 49.3625C33.7583 49.4125 33.6361 49.4375 33.5 49.4375C33.2472 49.4375 33.0278 49.3444 32.8417 49.1583C32.6556 48.9722 32.5625 48.7528 32.5625 48.5C32.5625 48.3639 32.5875 48.2417 32.6375 48.1333C32.6847 48.025 32.7472 47.9222 32.825 47.825L46.2458 34.4375H36.3125C36.0597 34.4375 35.8403 34.3444 35.6542 34.1583C35.4681 33.9722 35.375 33.7528 35.375 33.5C35.375 33.2472 35.4681 33.0278 35.6542 32.8417C35.8403 32.6556 36.0597 32.5625 36.3125 32.5625H48.5C48.7528 32.5625 48.9722 32.6556 49.1583 32.8417C49.3444 33.0278 49.4375 33.2472 49.4375 33.5Z" fill="#161616"/>
</g>
<defs>
<clipPath id="clip0_192_15">
<rect width="30" height="30" fill="white" transform="translate(26 26)"/>
</clipPath>
</defs>
</svg>
