<svg width="26" height="26" viewBox="0 0 26 26" fill="none" xmlns="http://www.w3.org/2000/svg">
<g clip-path="url(#clip0_192_8)">
<path d="M20.7207 6.50003V17.0625C20.7207 17.402 20.6015 17.6897 20.3632 17.9256C20.1273 18.1639 19.8396 18.2831 19.5001 18.2831C19.1607 18.2831 18.873 18.1639 18.6371 17.9256C18.4012 17.6897 18.2832 17.402 18.2832 17.0625V9.44669L7.3632 20.3631C7.24524 20.4642 7.11404 20.5485 6.96959 20.6159C6.82515 20.6857 6.66867 20.7206 6.50015 20.7206C6.1607 20.7206 5.87302 20.6014 5.63709 20.3631C5.40117 20.1272 5.2832 19.8395 5.2832 19.5C5.2832 19.3315 5.31209 19.1702 5.36987 19.0161C5.43005 18.8645 5.51913 18.7381 5.63709 18.637L16.5535 7.72058H8.93765C8.5982 7.72058 8.31052 7.60141 8.07459 7.36308C7.83867 7.12715 7.7207 6.83947 7.7207 6.50003C7.7207 6.16058 7.83867 5.8729 8.07459 5.63697C8.31052 5.40104 8.5982 5.28308 8.93765 5.28308H19.5001C19.8396 5.28308 20.1273 5.40104 20.3632 5.63697C20.6015 5.8729 20.7207 6.16058 20.7207 6.50003Z" fill="#161616"/>
</g>
<defs>
<clipPath id="clip0_192_8">
<rect width="26" height="26" fill="white"/>
</clipPath>
</defs>
</svg>
