<svg width="358" height="40" viewBox="0 0 358 40" fill="none" xmlns="http://www.w3.org/2000/svg">
<g clip-path="url(#clip0_114_221)">
<path d="M89.6717 0C78.6307 0 69.6484 8.97906 69.6484 20.0131C69.6484 31.0471 78.6307 40 89.6717 40C100.713 40 109.721 31.034 109.721 20.0131C109.721 8.99215 100.732 0 89.6717 0ZM89.6717 35.6872C81.0107 35.6872 73.9691 28.6518 73.9691 20.0131C73.9691 11.3743 81.0173 4.31283 89.6717 4.31283C98.3262 4.31283 105.401 11.3547 105.401 20.0131C105.401 28.6715 98.3459 35.6872 89.6717 35.6872Z" fill="#231F20"/>
<path d="M19.6365 0.412304H19.525L15.0929 3.6911L0 39.5877H4.66161L8.52334 30.4319C8.83149 29.6924 8.8905 29.5615 10.1756 29.5615H25.9241C27.2091 29.5615 27.2681 29.6924 27.5763 30.4385L31.438 39.5877H36.0996L19.6365 0.412304ZM10.7001 25.2552L18.0564 7.76832L25.4127 25.2552H10.7066H10.7001Z" fill="#231F20"/>
<path d="M62.8962 18.5537C65.086 16.7016 66.3317 13.8874 66.3317 10.7134C66.3317 4.74477 61.8734 0.412304 55.73 0.412304H42.7614L38.9062 3.26571V39.5942H56.3267C63.2371 39.5942 68.0626 34.9149 68.0626 28.2134C68.0626 24.0772 66.1482 20.5301 62.8962 18.5602V18.5537ZM43.2269 4.72513H55.73C59.6049 4.72513 62.0111 7.01571 62.0111 10.7134C62.0111 14.411 59.5458 16.7539 55.73 16.7539H43.2269V4.72513ZM56.3201 35.2749H43.2204V21.0602H56.3201C60.7588 21.0602 63.7354 23.9332 63.7354 28.2068C63.7354 32.4804 60.8244 35.2749 56.3201 35.2749Z" fill="#231F20"/>
<path d="M168.192 4.72513V0.412304H146.995L142.806 3.50785V39.5877H168.192V35.2749H147.126V22.1728H163.183V17.8599H147.126V4.72513H168.192Z" fill="#231F20"/>
<path d="M124.283 32.4738L111.964 0.412304H107.315L122.382 39.5877H126.185L141.251 0.412304H136.603L124.283 32.4738Z" fill="#231F20"/>
<path d="M204.547 24.7448H205.124C212.343 24.7448 217.378 19.8298 217.378 12.7945C217.378 5.75916 212.336 0.818062 205.124 0.818062H193.9L189.69 3.9267V39.9935H194.011V24.7382H195.572C197.67 24.7382 198.646 25.144 200.331 26.7081L214.369 39.8495L214.52 39.9935H220.86L204.547 24.7382V24.7448ZM194.018 20.4319V5.13743H205.124C209.871 5.13743 213.057 8.21335 213.057 12.801C213.057 17.3887 209.943 20.4385 205.124 20.4385H194.018V20.4319Z" fill="#231F20"/>
<path d="M222.354 4.20157V40H226.675V1.00785L222.354 4.20157Z" fill="#231F20"/>
<path d="M255.733 4.03141V31.3874L234.825 1.55759L230.721 4.59424V40H235.041V9.41099L256.33 39.7775L256.487 40H260.054V0.837696L255.733 4.03141Z" fill="#231F20"/>
<path d="M310.788 40L316.616 35.6872H297.459V0.824606H294.043L259.93 40H265.627L274.282 30.0589C275.383 28.9594 275.842 28.7893 277.77 28.7893H293.138V40H310.788ZM279.166 24.4568L293.138 8.42277V24.4568H279.166Z" fill="#231F20"/>
<path d="M330.85 0.824606H323.081L318.518 4.20157V40.0065H330.85C341.681 40.0065 350.487 31.2238 350.487 20.4319C350.487 9.64005 341.675 0.83115 330.85 0.83115V0.824606ZM330.85 35.6872H322.838V5.13743H330.85C339.295 5.13743 346.166 11.9961 346.166 20.4254C346.166 28.8547 339.295 35.6872 330.85 35.6872Z" fill="#231F20"/>
<path d="M353.68 4.02487V40H358V0.83115L353.68 4.02487Z" fill="#231F20"/>
</g>
<defs>
<clipPath id="clip0_114_221">
<rect width="358" height="40" fill="white"/>
</clipPath>
</defs>
</svg>
